<mxfile host="app.diagrams.net" modified="2024-06-19T06:40:58.913Z" agent="Mozilla/5.0 (X11; Linux x86_64) AppleWebKit/537.36 (KHTML, like Gecko) Chrome/119.0.0.0 Safari/537.36" version="24.4.0" etag="RDF3d5nfuBPu4bsEV_0U" type="github">
  <diagram name="Page-1" id="ImEaFmYQ5zJY1poJw8Bu">
    <mxGraphModel>
      <root>
        <mxCell id="0" />
        <mxCell id="1" parent="0" />
      </root>
    </mxGraphModel>
  </diagram>
</mxfile>
